<?xml version="1.0" standalone="no"?>
<!DOCTYPE svg PUBLIC "-//W3C//DTD SVG 20010904//EN"
 "http://www.w3.org/TR/2001/REC-SVG-20010904/DTD/svg10.dtd">
<svg version="1.0" xmlns="http://www.w3.org/2000/svg"
 width="512.000000pt" height="512.000000pt" viewBox="0 0 512.000000 512.000000"
 preserveAspectRatio="xMidYMid meet">

<g transform="translate(0.000000,512.000000) scale(0.100000,-0.100000)"
fill="#ffffffff" stroke="none">
<path d="M2348 4150 c-586 -57 -1129 -274 -1580 -632 -134 -106 -353 -325
-458 -458 -148 -186 -310 -448 -310 -500 0 -50 161 -306 309 -490 95 -118 281
-311 384 -398 42 -36 77 -68 77 -71 0 -3 -166 -107 -370 -231 -399 -243 -409
-251 -396 -322 8 -45 44 -78 93 -84 35 -5 56 6 263 132 124 75 338 205 475
289 138 83 810 493 1495 910 685 417 1346 820 1470 895 1370 832 1287 781
1306 816 35 64 -7 141 -83 151 -36 4 -64 -12 -450 -246 l-411 -251 -103 65
c-333 211 -732 356 -1129 410 -137 19 -460 27 -582 15z m542 -226 c310 -40
653 -151 915 -297 134 -75 145 -82 142 -91 -2 -5 -163 -106 -359 -226 l-357
-217 -73 71 c-168 164 -367 246 -598 246 -405 0 -751 -282 -835 -680 -30 -140
-15 -330 35 -461 19 -51 19 -55 3 -67 -27 -20 -770 -472 -785 -477 -19 -7
-197 145 -335 288 -125 130 -269 313 -362 461 l-53 86 57 92 c354 576 907 998
1555 1186 182 53 400 91 615 106 84 6 314 -5 435 -20z m-184 -744 c109 -28
195 -73 270 -145 l64 -60 -527 -320 c-290 -176 -531 -320 -537 -320 -18 0 -47
111 -53 200 -25 424 370 750 783 645z"/>
<path d="M4455 3350 c-40 -16 -66 -56 -67 -99 0 -37 6 -48 68 -116 154 -168
241 -277 336 -419 54 -82 97 -155 94 -162 -12 -31 -125 -205 -190 -292 -418
-559 -1032 -933 -1726 -1051 -494 -84 -981 -22 -1460 185 -68 30 -133 54 -145
54 -67 0 -117 -81 -90 -146 16 -40 37 -53 163 -109 374 -165 794 -246 1192
-231 921 34 1769 497 2296 1252 91 130 194 312 194 341 0 31 -27 83 -116 224
-95 150 -194 280 -327 428 -125 138 -166 165 -222 141z"/>
<path d="M3250 2608 c-24 -17 -37 -34 -42 -58 -4 -19 -14 -71 -22 -115 -37
-189 -166 -360 -336 -444 -167 -82 -331 -92 -510 -30 -94 31 -96 32 -131 15
-43 -20 -63 -54 -62 -102 2 -56 39 -87 151 -125 95 -33 101 -34 262 -33 159 0
169 1 260 32 288 96 501 326 570 614 11 46 20 109 20 140 0 49 -4 62 -27 88
-39 43 -87 49 -133 18z"/>
</g>
</svg>
